<svg xmlns="http://www.w3.org/2000/svg" viewBox="0 0 442.69 107.26"><defs><style>.cls-1{fill:#a3a6a8;}.cls-1,.cls-2,.cls-3,.cls-4{fill-rule:evenodd;}.cls-2{fill:#006380;}.cls-3{fill:#f48020;}.cls-4{fill:#0084b6;}</style></defs><g id="Camada_2" data-name="Camada 2"><g id="CABEÇALHO"><g id="LOGO"><path class="cls-1" d="M116.86,26.66c0-2.09.84-2.83,2.92-2.83h4.74c2.08,0,2.82.74,2.82,2.83V80.07c0,2.08-.74,2.83-2.82,2.83h-4.74c-2.08,0-2.92-.75-2.92-2.83Z"/><path class="cls-1" d="M157.05,38.55c11.65,0,17.31,6,17.31,16.73v25c0,1.91-.66,2.58-2.58,2.58H167.2c-1.91,0-2.5-.67-2.5-2.58V55.53c0-5.41-3-8.16-9.07-8.16a29.23,29.23,0,0,0-8,1.09.79.79,0,0,0-.58.83v31c0,1.91-.59,2.58-2.5,2.58H140c-1.91,0-2.57-.67-2.57-2.58V46.12c0-2.66.58-3.66,3.24-4.73A43.23,43.23,0,0,1,157.05,38.55Z"/><path class="cls-1" d="M194.5,29.81c1.91,0,2.58.59,2.58,2.5V39.8h9.47c1.93,0,2.59.58,2.59,2.5v3.82c0,1.92-.66,2.58-2.59,2.58h-9.47V65.43q0,5.86,2,7.74c1.25,1.24,3.75,1.82,7.41,1.82,2,0,2.66.59,2.66,2.59V81.4c0,2-.66,2.58-2.66,2.67-7,.25-11.9-1-14.73-3.67s-4.33-7.57-4.33-14.64V48.7h-5.74c-1.92,0-2.5-.66-2.5-2.58V42.3c0-1.92.58-2.5,2.5-2.5h5.74V32.31c0-1.91.67-2.5,2.58-2.5Z"/><path class="cls-1" d="M243,55.19c0-5.4-3.24-8.48-9.56-8.48s-9.66,3.08-9.66,8.48V57H243V55.19Zm-28.87,1.34h0c0-11.65,6.74-18,19.31-18s19.22,7.16,19.22,17.23v5.07c0,2.42-1.26,3.58-3.75,3.58H223.78v3.08c0,5.41,3.41,8.32,9.48,8.32,4.67,0,7.91-1.5,9.83-4.41,1.33-1.91,2.24-2.08,4.24-1L250.24,72c1.92.92,2.25,2.25,1,4.16q-4.86,8-18,8c-13,0-19.13-6.91-19.13-17.8Z"/><path class="cls-1" d="M281.53,38.55c1.9,0,2.58.59,2.58,2.58v3.66c0,1.92-.68,2.58-2.58,2.58h-3a27.39,27.39,0,0,0-7.89,1,.89.89,0,0,0-.84,1V80.32c0,1.91-.58,2.58-2.5,2.58h-4.57c-1.91,0-2.58-.67-2.58-2.58V45.79c0-2.66.58-3.66,3.25-4.74a49.28,49.28,0,0,1,15.47-2.5Z"/><path class="cls-1" d="M442.69,81.4V77.58c0-2-.67-2.59-2.66-2.59-3.66,0-6.16-.58-7.4-1.82s-2-3.83-2-7.74V48.7h9.48c1.91,0,2.58-.66,2.58-2.58V42.3c0-1.92-.67-2.5-2.58-2.5h-9.48V32.31c0-1.91-.67-2.5-2.59-2.5h-4.49c-1.91,0-2.57.59-2.57,2.5V39.8h-5.74c-1.93,0-2.5.58-2.5,2.5v3.82c0,1.92.57,2.58,2.5,2.58H421V65.76c0,7.07,1.4,12,4.32,14.64S433,84.32,440,84.07c2-.09,2.66-.67,2.66-2.67ZM288.84,44.21h0V62.43c0,13.56,8.57,21.72,23.8,21.72q17.85,0,22.72-14a2.61,2.61,0,0,0-1.83-3.66L329,64.93c-2-.75-2.74-.33-3.66,1.75q-2.87,7.74-12.73,7.73c-8.57,0-13.31-4.24-13.31-11.89V44.13c0-7.65,4.74-11.82,13.31-11.82,6.66,0,10.9,2.58,12.73,7.65.75,2,1.58,2.42,3.58,1.76l4.58-1.59c1.83-.66,2.41-1.92,1.74-3.65-3.24-9.24-10.82-13.91-22.63-13.91-15.23,0-23.8,8.25-23.8,21.64Zm117.24-5.66h0a49.35,49.35,0,0,0-15.48,2.5c-2.65,1.08-3.24,2.08-3.24,4.74V80.32c0,1.91.67,2.58,2.58,2.58h4.58c1.91,0,2.49-.67,2.49-2.58V49.37a.89.89,0,0,1,.83-1,27.54,27.54,0,0,1,7.91-1h3c1.91,0,2.57-.66,2.57-2.58V41.13c0-2-.66-2.58-2.57-2.58Zm-64.73,18h0v9.82c0,10.89,6.16,17.8,19.14,17.8q13.1,0,18-8c1.26-1.91.93-3.24-1-4.16l-2.91-1.58c-2-1.08-2.92-.92-4.25,1-1.91,2.91-5.16,4.41-9.81,4.41-6.08,0-9.49-2.91-9.49-8.32V64.43h25.13c2.5,0,3.74-1.16,3.74-3.58V55.78c0-10.07-6.57-17.23-19.21-17.23s-19.31,6.33-19.31,18ZM351,55.19h0c0-5.4,3.41-8.48,9.66-8.48s9.56,3.08,9.56,8.48V57H351Z"/><path class="cls-2" d="M92.15,28.24h0c-4.46,0-8.91,0-13.36,0s-9,0-13.48,0a1.62,1.62,0,0,0-1.65.91Q57,40.82,50.18,52.45a1.52,1.52,0,0,0,0,1.77Q57,65.85,63.66,77.52a1.51,1.51,0,0,0,1.53.9q13.43,0,26.83,0a1.63,1.63,0,0,0,1.64-.93q6.69-11.67,13.46-23.29a1.55,1.55,0,0,0,0-1.78q-6.75-11.61-13.45-23.29A1.49,1.49,0,0,0,92.15,28.24Z"/><path class="cls-3" d="M13.73,1Q7,12.62.27,24.26a1.43,1.43,0,0,0,0,1.66q6.8,11.69,13.52,23.41a1.46,1.46,0,0,0,1.46.83c4.49,0,9,0,13.48,0s9,0,13.47,0a1.55,1.55,0,0,0,1.57-.87q6.7-11.73,13.5-23.42a1.34,1.34,0,0,0,0-1.56Q50.48,12.63,43.75.91A1.52,1.52,0,0,0,42.21,0Q28.78,0,15.37,0h0A1.63,1.63,0,0,0,13.73,1Z"/><path class="cls-4" d="M14.38,58Q7.69,69.69.92,81.33A1.43,1.43,0,0,0,.91,83q6.77,11.63,13.45,23.3a1.75,1.75,0,0,0,1.75,1c4.42,0,8.83,0,13.24,0s8.91,0,13.36,0a1.72,1.72,0,0,0,1.74-1q6.66-11.62,13.39-23.2a1.5,1.5,0,0,0,0-1.77Q51.11,69.66,44.41,58a1.54,1.54,0,0,0-1.55-.9q-13.49,0-26.95,0h0A1.54,1.54,0,0,0,14.38,58Z"/></g></g></g></svg>